<svg xmlns="http://www.w3.org/2000/svg" xmlns:xlink="http://www.w3.org/1999/xlink" width="70" height="70" viewBox="0 0 70 70">
  <defs>
    <clipPath id="clip-path">
      <path id="Path_86094" data-name="Path 86094" d="M-65-844H5v-70H-65Z" transform="translate(65 914)" fill="none"/>
    </clipPath>
    <clipPath id="clip-path-2">
      <rect id="Rectangle_11149" data-name="Rectangle 11149" width="22.969" height="55.029" fill="none"/>
    </clipPath>
    <clipPath id="clip-path-3">
      <path id="Path_86090" data-name="Path 86090" d="M283.366-331.951c-3.455,3.453-3.455,14.134,0,17.587s14.12,3.453,17.582,0,3.449-14.134,0-17.587-14.12-3.459-17.582,0" transform="translate(-280.775 334.546)" fill="none" clip-rule="evenodd"/>
    </clipPath>
    <clipPath id="clip-path-4">
      <path id="Path_86089" data-name="Path 86089" d="M280-749.107h22.832V-804H280Z" transform="translate(-280 804)" fill="none"/>
    </clipPath>
    <clipPath id="clip-path-5">
      <path id="Path_86093" data-name="Path 86093" d="M300.948-783.157c3.449-3.466,3.449-14.128,0-17.587s-14.12-3.459-17.582,0-3.455,14.121,0,17.587,14.12,3.459,17.582,0" transform="translate(-280.775 803.338)" fill="none" clip-rule="evenodd"/>
    </clipPath>
    <clipPath id="clip-path-7">
      <path id="Path_86110" data-name="Path 86110" d="M26.646-548.548H84.417v-11.79H26.646Z" transform="translate(-26.646 560.338)" fill="none"/>
    </clipPath>
    <clipPath id="clip-path-8">
      <rect id="Rectangle_11150" data-name="Rectangle 11150" width="56.67" height="10.801" fill="none"/>
    </clipPath>
    <clipPath id="clip-path-9">
      <path id="Path_86097" data-name="Path 86097" d="M35.269-530.537l.322-.364a5.137,5.137,0,0,0,3.437,1.193c2.043,0,3.4-1.233,3.4-2.951,0-1.86-1.7-2.749-3.376-3.659s-3.254-1.679-3.254-3.74c0-1.939,1.475-3.032,3.517-3.032a5.559,5.559,0,0,1,3.254,1.011l-.281.405a5.134,5.134,0,0,0-3.014-.93c-1.718,0-2.951.93-2.951,2.505,0,1.8,1.254,2.387,2.932,3.3s3.7,1.9,3.7,4.1c0,2.041-1.555,3.478-3.96,3.478a5.356,5.356,0,0,1-3.72-1.315" transform="translate(-35.269 543.091)" fill="none" clip-rule="evenodd"/>
    </clipPath>
    <clipPath id="clip-path-10">
      <path id="Path_86096" data-name="Path 86096" d="M26-549.105H83.832V-561H26Z" transform="translate(-26 561)" fill="none"/>
    </clipPath>
    <clipPath id="clip-path-11">
      <path id="Path_86100" data-name="Path 86100" d="M184.363-540.121h.568l4.729,12.835,4.731-12.835h.564l1.76,13.462h-.507l-1.638-12.452-4.589,12.452h-.647l-4.607-12.452-1.618,12.452h-.5Z" transform="translate(-182.605 540.121)" fill="none" clip-rule="evenodd"/>
    </clipPath>
    <clipPath id="clip-path-13">
      <path id="Path_86103" data-name="Path 86103" d="M424.913-531.159l-3.154-8.327-3.171,8.327Zm-3.476-8.954h.647l5.094,13.462h-.545l-1.536-4.021h-6.691l-1.516,4.021h-.545Z" transform="translate(-416.344 540.113)" fill="none" clip-rule="evenodd"/>
    </clipPath>
    <clipPath id="clip-path-15">
      <path id="Path_86106" data-name="Path 86106" d="M615.617-534.021c2.385,0,3.779-.91,3.779-2.81s-1.394-2.81-3.779-2.81h-2.023v5.621Zm-2.548-6.1h2.566c2.648,0,4.286,1.052,4.286,3.295,0,2.2-1.657,3.3-4.286,3.3h-.283v.018c.244.1.486.285,1.194,1.233l4.2,5.619h-.688l-3.981-5.376c-1.032-1.394-1.294-1.494-1.943-1.494h-.525l-.02,6.87h-.525Z" transform="translate(-613.069 540.126)" fill="none" clip-rule="evenodd"/>
    </clipPath>
    <clipPath id="clip-path-17">
      <path id="Path_86109" data-name="Path 86109" d="M743.95-539.631h-3.944v-.484h8.411v.484h-3.942v12.977h-.525Z" transform="translate(-740.006 540.116)" fill="none" clip-rule="evenodd"/>
    </clipPath>
    <clipPath id="clip-path-19">
      <path id="Path_86113" data-name="Path 86113" d="M3.537-360.114c.842,0,1.327-.27,1.327-.966s-.4-1-1.254-1h-.9v1.97Zm-.131-3.351c.827,0,1.194-.293,1.194-.93,0-.611-.39-.881-1.146-.881H2.708v1.81Zm-2.631-3.3h2.9c1.5,0,2.851.477,2.851,2.03a1.755,1.755,0,0,1-1.437,1.884v.025a1.92,1.92,0,0,1,1.766,1.956c0,1.651-1.364,2.251-3.215,2.251H.775Z" transform="translate(-0.775 366.768)" fill="none" clip-rule="evenodd"/>
    </clipPath>
    <clipPath id="clip-path-21">
      <path id="Path_86116" data-name="Path 86116" d="M112.13-362.877c.976,0,1.412-.392,1.412-1.234,0-.8-.425-1.188-1.364-1.188h-.753v2.422Zm-2.668-3.9h2.865c1.8,0,3.176.832,3.176,2.643s-1.339,2.74-3.385,2.74h-.694v2.763h-1.963Z" transform="translate(-109.462 366.779)" fill="none" clip-rule="evenodd"/>
    </clipPath>
    <clipPath id="clip-path-23">
      <path id="Path_86119" data-name="Path 86119" d="M217.707-366.773h4.845v1.615h-2.9v1.58h2.556v1.516h-2.556v1.822h2.983v1.615h-4.932Z" transform="translate(-217.707 366.773)" fill="none" clip-rule="evenodd"/>
    </clipPath>
    <clipPath id="clip-path-25">
      <path id="Path_86122" data-name="Path 86122" d="M314.383-366.943c.791,0,1.17-.391,1.17-1.074,0-.707-.379-1.072-1.241-1.072h-.755v2.146Zm-2.741-3.674h2.788c1.914,0,3,.858,3,2.474a2.2,2.2,0,0,1-1.713,2.286v.026a4.1,4.1,0,0,1,.958,1.25l1.406,2.372H316l-1.393-2.4c-.508-.845-.639-.922-.958-.922h-.094v3.32h-1.914Z" transform="translate(-311.642 370.618)" fill="none" clip-rule="evenodd"/>
    </clipPath>
    <clipPath id="clip-path-27">
      <path id="Path_86125" data-name="Path 86125" d="M438.51-364.847V-366.4h-3.567l3.47-5.118v-1.206h-5.675v1.548h3.313l-3.446,5.094v1.229Zm5.22,0a3.986,3.986,0,0,0,4.128-4.23,3.956,3.956,0,0,0-4.176-4.133,4.014,4.014,0,0,0-4.188,4.194A4.034,4.034,0,0,0,443.729-364.847Zm-.054-1.476c-1.542,0-2.214-1.29-2.214-2.756,0-1.441.684-2.656,2.264-2.656,1.555,0,2.164,1.265,2.164,2.719S445.255-366.323,443.676-366.323Zm7.466,1.476v-4.1c0-.532-.037-1.017-.05-1.1h.025c.087.118.334.556.842,1.229l2.935,3.971h1.82v-7.872h-1.808v3.759c0,.615.037,1.206.049,1.288h-.025c-.062-.095-.371-.65-.9-1.383l-2.675-3.664h-2.018v7.872Zm12.46,0v-1.56h-2.976v-1.761h2.551v-1.466h-2.551v-1.525h2.891v-1.56h-4.835v7.872Z" transform="translate(-432.606 373.211)" fill="none"/>
    </clipPath>
  </defs>
  <g id="BPER_ZONE" data-name="BPER ZONE" transform="translate(15892 18392)">
    <g id="Group_27595" data-name="Group 27595" transform="translate(-15892 -18392)">
      <rect id="Rectangle_11146" data-name="Rectangle 11146" width="70" height="70" rx="8" fill="#005157"/>
    </g>
    <g id="Group_27627" data-name="Group 27627" transform="translate(-15892 -18392)">
      <g id="Group_27603" data-name="Group 27603" clip-path="url(#clip-path)">
        <g id="Group_27602" data-name="Group 27602" transform="translate(23.516 7.451)" opacity="0.5" style="mix-blend-mode: normal;isolation: isolate">
          <g id="Group_27601" data-name="Group 27601" clip-path="url(#clip-path-2)">
            <g id="Group_27598" data-name="Group 27598" transform="translate(0.121 32.16)" clip-path="url(#clip-path-3)">
              <g id="Group_27597" data-name="Group 27597" transform="translate(-0.053 -32.092)" clip-path="url(#clip-path-4)">
                <path id="Path_86088" data-name="Path 86088" d="M279-348.2h22.969v23.8H279Z" transform="translate(-279.068 379.354)" fill="#00ad64"/>
              </g>
            </g>
            <g id="Group_27600" data-name="Group 27600" transform="translate(0.121 0.114)" clip-path="url(#clip-path-5)">
              <g id="Group_27599" data-name="Group 27599" transform="translate(-0.053 -0.045)" clip-path="url(#clip-path-4)">
                <path id="Path_86091" data-name="Path 86091" d="M279-805h22.969v23.822H279Z" transform="translate(-279.068 804.932)" fill="#00ad64"/>
              </g>
            </g>
          </g>
        </g>
      </g>
      <g id="Group_27616" data-name="Group 27616" transform="translate(6.265 24.176)" clip-path="url(#clip-path-7)">
        <g id="Group_27615" data-name="Group 27615" transform="translate(0.571 1.117)" style="mix-blend-mode: normal;isolation: isolate">
          <g id="Group_27614" data-name="Group 27614" clip-path="url(#clip-path-8)">
            <g id="Group_27605" data-name="Group 27605" transform="translate(0.018 0.062)" clip-path="url(#clip-path-9)">
              <g id="Group_27604" data-name="Group 27604" transform="translate(-0.634 -1.224)" clip-path="url(#clip-path-10)">
                <path id="Path_86095" data-name="Path 86095" d="M34.269-544.091h7.817v10.807H34.269Z" transform="translate(-33.704 545.247)" fill="#fff"/>
              </g>
            </g>
            <g id="Group_27607" data-name="Group 27607" transform="translate(10.09 0.265)" clip-path="url(#clip-path-11)">
              <g id="Group_27606" data-name="Group 27606" transform="translate(-10.705 -1.427)" clip-path="url(#clip-path-10)">
                <path id="Path_86098" data-name="Path 86098" d="M181.605-541.121h14.247v10.6H181.605Z" transform="translate(-170.968 542.48)" fill="#fff"/>
              </g>
            </g>
            <g id="Group_27609" data-name="Group 27609" transform="translate(26.068 0.266)" clip-path="url(#clip-path-13)">
              <g id="Group_27608" data-name="Group 27608" transform="translate(-26.684 -1.428)" clip-path="url(#clip-path-10)">
                <path id="Path_86101" data-name="Path 86101" d="M415.344-541.113h10.971v10.6H415.344Z" transform="translate(-388.728 542.472)" fill="#fff"/>
              </g>
            </g>
            <g id="Group_27611" data-name="Group 27611" transform="translate(39.516 0.265)" clip-path="url(#clip-path-15)">
              <g id="Group_27610" data-name="Group 27610" transform="translate(-40.132 -1.427)" clip-path="url(#clip-path-10)">
                <path id="Path_86104" data-name="Path 86104" d="M612.069-541.126h7.819v10.6h-7.819Z" transform="translate(-572.006 542.485)" fill="#fff"/>
              </g>
            </g>
            <g id="Group_27613" data-name="Group 27613" transform="translate(48.194 0.266)" clip-path="url(#clip-path-17)">
              <g id="Group_27612" data-name="Group 27612" transform="translate(-48.809 -1.428)" clip-path="url(#clip-path-10)">
                <path id="Path_86107" data-name="Path 86107" d="M739.006-541.116h8.547v10.6h-8.547Z" transform="translate(-690.266 542.475)" fill="#fff"/>
              </g>
            </g>
          </g>
        </g>
      </g>
      <g id="Group_27618" data-name="Group 27618" transform="translate(4.496 37.408)" clip-path="url(#clip-path-19)">
        <g id="Group_27617" data-name="Group 27617" transform="translate(-4.496 -37.408)" clip-path="url(#clip-path)">
          <path id="Path_86111" data-name="Path 86111" d="M-.225-367.768H5.987v8.283H-.225Z" transform="translate(4.653 405.108)" fill="#fff"/>
        </g>
      </g>
      <g id="Group_27620" data-name="Group 27620" transform="translate(11.926 37.408)" clip-path="url(#clip-path-21)">
        <g id="Group_27619" data-name="Group 27619" transform="translate(-11.926 -37.408)" clip-path="url(#clip-path)">
          <path id="Path_86114" data-name="Path 86114" d="M108.462-367.779h6.178v8.283h-6.178Z" transform="translate(-96.605 405.118)" fill="#fff"/>
        </g>
      </g>
      <g id="Group_27622" data-name="Group 27622" transform="translate(19.326 37.408)" clip-path="url(#clip-path-23)">
        <g id="Group_27621" data-name="Group 27621" transform="translate(-19.326 -37.408)" clip-path="url(#clip-path)">
          <path id="Path_86117" data-name="Path 86117" d="M216.707-367.773h5.069v8.283h-5.069Z" transform="translate(-197.449 405.113)" fill="#fff"/>
        </g>
      </g>
      <g id="Group_27624" data-name="Group 27624" transform="translate(25.747 37.145)" clip-path="url(#clip-path-25)">
        <g id="Group_27623" data-name="Group 27623" transform="translate(-25.747 -37.145)" clip-path="url(#clip-path)">
          <path id="Path_86120" data-name="Path 86120" d="M310.642-371.618h6.576v8.546h-6.576Z" transform="translate(-284.964 408.695)" fill="#fff"/>
        </g>
      </g>
      <g id="Group_27626" data-name="Group 27626" transform="translate(34.016 36.968)" clip-path="url(#clip-path-27)">
        <g id="Group_27625" data-name="Group 27625" transform="translate(-34.016 -36.968)" clip-path="url(#clip-path)">
          <path id="Path_86123" data-name="Path 86123" d="M431.606-374.211h31.132v8.5H431.606Z" transform="translate(-397.658 411.111)" fill="#fff"/>
        </g>
      </g>
    </g>
  </g>
</svg>
