<svg xmlns="http://www.w3.org/2000/svg" xmlns:xlink="http://www.w3.org/1999/xlink" width="100" height="50.286" viewBox="0 0 100 50.286">
  <defs>
    <clipPath id="clip-path">
      <rect id="Rettangolo_10937" data-name="Rettangolo 10937" width="100" height="50.286" fill="none"/>
    </clipPath>
  </defs>
  <g id="Raggruppa_29726" data-name="Raggruppa 29726" transform="translate(0 0)">
    <g id="Raggruppa_26801" data-name="Raggruppa 26801" transform="translate(0 0)" clip-path="url(#clip-path)">
      <path id="Tracciato_85884" data-name="Tracciato 85884" d="M8.091,24.095v-.05a3.5,3.5,0,0,0,2.862-3.7c0-3.055-2.569-4.024-5.574-4.024H0V32.455H5.3c3.685,0,6.325-1.191,6.325-4.484a3.815,3.815,0,0,0-3.538-3.876M3.366,18.936H5.018c1.718,0,2.565.652,2.565,1.936,0,1.455-.8,2.088-2.642,2.088H3.366Zm1.795,10.9H3.366V25.4H5.3c2.015,0,2.86.753,2.86,2.272,0,1.556-1.042,2.164-3,2.164m18.195-5.113c0-3.129-1.525-4.362-4.75-4.362a6.949,6.949,0,0,0-4.771,1.693l1.4,1.963a4.846,4.846,0,0,1,3-1.114c1.43,0,1.913.51,1.913,1.648v.683h-.411c-3.123,0-6.3,1.085-6.3,4.186a3.244,3.244,0,0,0,3.561,3.32A4.288,4.288,0,0,0,20.326,31.2a6.711,6.711,0,0,0,.193,1.26h3.175a15.764,15.764,0,0,1-.338-3.488Zm-3.2,4.628A2.786,2.786,0,0,1,17.977,30.4c-.751,0-1.43-.367-1.43-1.241,0-1.376,1.282-1.936,3.2-1.936h.411Zm13.208-8.989a4.746,4.746,0,0,0-3.758,1.768V20.656h-3.15v11.8h3.223V24.528A3.209,3.209,0,0,1,32.1,23.051c1.162,0,1.575.612,1.575,1.793v7.612H36.9V24.192c0-2.206-.967-3.827-3.534-3.827m12.185,9.882c-2.009,0-2.955-1.573-2.955-3.779s.969-3.658,2.884-3.658a4.237,4.237,0,0,1,2.471.7l1.042-2.2a6.343,6.343,0,0,0-3.609-.944,5.809,5.809,0,0,0-6.2,6.2c0,3.661,2.326,6.178,6.105,6.178a6.367,6.367,0,0,0,3.8-1.067L48.1,29.525a4.669,4.669,0,0,1-2.546.722m14.779-1.28V24.727c0-3.129-1.525-4.362-4.748-4.362a6.941,6.941,0,0,0-4.771,1.693l1.4,1.963a4.814,4.814,0,0,1,3-1.114c1.434,0,1.917.51,1.917,1.648v.683h-.411c-3.125,0-6.3,1.085-6.3,4.186a3.24,3.24,0,0,0,3.555,3.32A4.286,4.286,0,0,0,57.3,31.2a6.88,6.88,0,0,0,.2,1.26h3.173a15.764,15.764,0,0,1-.338-3.488m-3.2.388A2.8,2.8,0,0,1,54.947,30.4c-.749,0-1.426-.367-1.426-1.241,0-1.376,1.282-1.936,3.2-1.936h.411Z" transform="translate(0 17.543)" fill="#fff"/>
      <path id="Tracciato_85885" data-name="Tracciato 85885" d="M15.748,11.832v-.064c1.793-.7,3.169-2.943,3.169-5.4C18.917,2.6,16.775,0,11.509,0H0V25H11.724c5.126,0,8.209-2.633,8.209-7.265,0-3.158-1.38-5.233-4.186-5.9M5.736,4.9h5.049c1.971,0,2.459.591,2.459,2.488,0,1.772-.9,2.658-2.455,2.658H5.736Zm4.955,15.136H5.736V14.414h5.292c1.994,0,2.895.764,2.895,2.658,0,2.079-1.241,2.967-3.231,2.967M88.284,7.734C88.238,2.617,85.472,0,79.784,0H69.122V25h5.734V15.931h4.223L83.627,25h6.549l-6.018-10.2a7.983,7.983,0,0,0,4.125-7.06m-8.821,3.561H74.868l0-6.391H79.6c2.088,0,2.777.847,2.777,2.756,0,2.123-.749,3.636-2.909,3.636M52.37,14.6h9.691V9.784H52.37V5.074H63.812V0H46.632V25h17.7V19.9H52.37Zm41.067.579c-1.127,1.106-1.127,4.528,0,5.634s4.594,1.106,5.721,0,1.123-4.528,0-5.634-4.594-1.108-5.721,0m5.721-4.893c1.123-1.11,1.123-4.526,0-5.634s-4.594-1.108-5.721,0-1.127,4.524,0,5.634,4.594,1.108,5.721,0M34.127,0H23.976V25H29.72V4.9h4.54c2.168,0,2.953.824,2.953,3.206,0,3.3-2.708,4.3-5.092,4.256l.961,4.439c6.35,0,10.052-3.6,10.052-8.417C43.133,2.878,40.955,0,34.127,0" transform="translate(0 0)" fill="#fff"/>
    </g>
  </g>
</svg>
